# xmcd
# 
# Track frame offsets:
#     150
#     13047
#     24222
#     33297
#     45597
#     57372
#     66522
#     77175
#     91197
#     102147
#     112047
#     122547
#     134397
#     146325
#     158547
#     170322
#     181197
#     192822
#     205197
#     215775
# 
# Disc length: 3035
# 
# Revision: 1
# Processed by: cddbd v1.5.2PL0 Copyright (c) Steve Scherf et al.
# Submitted via: fre:ac v1.0.27
# 
DISCID=090bd914
DTITLE=Various Artist - Nashville Country Club Vol. I
DYEAR=0
DGENRE=country
TTITLE0=Buddy Harris - Rosey Thompson
TTITLE1=Johnny Cash - Oh Lonesome Me
TTITLE2=Webb Pierce - I Ain't Never
TTITLE3=Jimmy C. Newman - Alligator Man
TTITLE4=Roy Drusky - Another
TTITLE5=Rita Remington - When Will I Be Loved
TTITLE6=Roy Drusky - Strangers
TTITLE7=Jeannie C. Riley - The Lions Club
TTITLE8=Jimmy C. Newman - Big Bayou
TTITLE9=Dave Dudley - Movin' On
TTITLE10=Hank Locklin - Night Life Queen
TTITLE11=Rita Remington - Paper Roses
TTITLE12=Buddy Harris - I Honkey Tonked All The Way Back Home
TTITLE13=Johnny Cash - Goodnight Irene
TTITLE14=Jeannie C. Riley - Okie From Muskogee
TTITLE15=Buddy Harris - Too Much Woman For You
TTITLE16=Jeannie C. Riley - Before The Next Teardrops Falls
TTITLE17=Jimmy C. Newman - A Cajun Man Can
TTITLE18=Webb Pierce - Cowtown
TTITLE19=Roy Drusky - Three Hearts In A Tangle
EXTD=vom Steinebeisser
EXTT0=
EXTT1=
EXTT2=
EXTT3=
EXTT4=
EXTT5=
EXTT6=
EXTT7=
EXTT8=
EXTT9=
EXTT10=
EXTT11=
EXTT12=
EXTT13=
EXTT14=
EXTT15=
EXTT16=
EXTT17=
EXTT18=
EXTT19=
PLAYORDER=
